<svg aria-hidden="true" style="position: absolute; width: 0; height: 0; overflow: hidden;" version="1.1" xmlns="http://www.w3.org/2000/svg" xmlns:xlink="http://www.w3.org/1999/xlink">
<defs>
<symbol id="icon-hashtag" viewBox="0 0 32 32">
<path stroke-linejoin="round" stroke-linecap="round" stroke-miterlimit="4" stroke-width="2.6667" d="M13.333 4l-5.333 24M24 4l-5.333 24M5.333 10.667h22.667M4 21.333h22.667"></path>
</symbol>
<symbol id="icon-block" viewBox="0 0 32 32">
<path d="M29.334 15.999c0 7.364-5.969 13.333-13.333 13.333s-13.333-5.969-13.333-13.333c0-7.364 5.969-13.333 13.333-13.333s13.333 5.969 13.333 13.333zM16 26.666c2.829 0 5.542-1.124 7.543-3.124s3.124-4.713 3.124-7.542c0-2.829-1.124-5.542-3.124-7.542s-4.714-3.124-7.543-3.124c-2.829 0-5.542 1.124-7.542 3.124s-3.124 4.713-3.124 7.542c0 2.829 1.124 5.542 3.124 7.542s4.713 3.124 7.542 3.124z"></path>
<path d="M24.943 7.722c0.25 0.25 0.39 0.589 0.39 0.943s-0.14 0.693-0.39 0.943l-15.333 15.333c-0.251 0.243-0.588 0.377-0.938 0.374s-0.684-0.143-0.931-0.391c-0.247-0.247-0.387-0.582-0.39-0.931s0.131-0.686 0.374-0.938l15.333-15.333c0.25-0.25 0.589-0.39 0.943-0.39s0.693 0.14 0.943 0.39z"></path>
</symbol>
<symbol id="icon-bell" viewBox="0 0 32 32">
<path stroke-linejoin="round" stroke-linecap="round" stroke-miterlimit="4" stroke-width="2.6667" d="M13.691 28c0.234 0.405 0.571 0.742 0.976 0.976s0.865 0.357 1.333 0.357c0.468 0 0.928-0.123 1.333-0.357s0.742-0.571 0.976-0.976M4.35 20.435c-0.174 0.191-0.289 0.428-0.331 0.683s-0.008 0.517 0.096 0.753c0.104 0.236 0.275 0.438 0.491 0.579s0.469 0.216 0.728 0.217h21.333c0.258 0 0.511-0.075 0.728-0.216s0.388-0.342 0.492-0.578c0.104-0.236 0.138-0.498 0.097-0.753s-0.156-0.492-0.33-0.684c-1.773-1.828-3.653-3.771-3.653-9.769 0-2.122-0.843-4.157-2.343-5.657s-3.535-2.343-5.657-2.343c-2.122 0-4.157 0.843-5.657 2.343s-2.343 3.535-2.343 5.657c0 5.999-1.881 7.941-3.651 9.768z"></path>
</symbol>
<symbol id="icon-camera" viewBox="0 0 32 32">
<path fill="none" stroke="#686970" style="stroke: var(--color1, #686970)" stroke-linejoin="round" stroke-linecap="round" stroke-miterlimit="4" stroke-width="2.6667" d="M18.664 5.336c0.481 0 0.953 0.13 1.366 0.377s0.752 0.6 0.98 1.023l0.648 1.2c0.229 0.423 0.567 0.777 0.98 1.023s0.885 0.377 1.366 0.377h2.663c0.707 0 1.385 0.281 1.886 0.781s0.781 1.178 0.781 1.886v12c0 0.707-0.281 1.386-0.781 1.886s-1.178 0.781-1.886 0.781h-21.333c-0.707 0-1.386-0.281-1.886-0.781s-0.781-1.178-0.781-1.886v-12c0-0.707 0.281-1.386 0.781-1.886s1.178-0.781 1.886-0.781h2.663c0.481 0 0.952-0.13 1.365-0.376s0.752-0.599 0.98-1.022l0.652-1.205c0.229-0.423 0.567-0.776 0.98-1.022s0.884-0.376 1.365-0.376h5.324z"></path>
<path fill="none" stroke="#686970" style="stroke: var(--color1, #686970)" stroke-linejoin="round" stroke-linecap="round" stroke-miterlimit="4" stroke-width="2.6667" d="M16 21.336c2.209 0 4-1.791 4-4s-1.791-4-4-4c-2.209 0-4 1.791-4 4s1.791 4 4 4z"></path>
</symbol>
<symbol id="icon-left" viewBox="0 0 32 32">
<path stroke-linejoin="round" stroke-linecap="round" stroke-miterlimit="4" stroke-width="2.6667" d="M20 24l-8-8 8-8"></path>
</symbol>
<symbol id="icon-check" viewBox="0 0 32 32">
<path fill="none" stroke="#027a48" style="stroke: var(--color2, #027a48)" stroke-linejoin="round" stroke-linecap="round" stroke-miterlimit="4" stroke-width="2.6667" d="M16 29.333c7.364 0 13.333-5.969 13.333-13.333s-5.97-13.333-13.333-13.333c-7.364 0-13.333 5.97-13.333 13.333s5.97 13.333 13.333 13.333z"></path>
<path fill="none" stroke="#027a48" style="stroke: var(--color2, #027a48)" stroke-linejoin="round" stroke-linecap="round" stroke-miterlimit="4" stroke-width="2.6667" d="M12 16l2.667 2.667 5.333-5.333"></path>
</symbol>
<symbol id="icon-eye" viewBox="0 0 32 32">
<path fill="none" stroke="#8e8f96" style="stroke: var(--color3, #8e8f96)" stroke-linejoin="round" stroke-linecap="round" stroke-miterlimit="4" stroke-width="2.6667" d="M2.749 16.464c-0.111-0.299-0.111-0.629 0-0.928 1.082-2.624 2.919-4.868 5.278-6.447s5.134-2.422 7.972-2.422c2.839 0 5.613 0.843 7.972 2.422s4.196 3.823 5.278 6.447c0.111 0.299 0.111 0.629 0 0.928-1.082 2.624-2.919 4.868-5.278 6.447s-5.134 2.422-7.972 2.422c-2.839 0-5.613-0.843-7.972-2.422s-4.196-3.823-5.278-6.447z"></path>
<path fill="none" stroke="#8e8f96" style="stroke: var(--color3, #8e8f96)" stroke-linejoin="round" stroke-linecap="round" stroke-miterlimit="4" stroke-width="2.6667" d="M16 20c2.209 0 4-1.791 4-4s-1.791-4-4-4c-2.209 0-4 1.791-4 4s1.791 4 4 4z"></path>
</symbol>
<symbol id="icon-eye-off" viewBox="0 0 32 32">
<path fill="none" stroke="#8e8f96" style="stroke: var(--color3, #8e8f96)" stroke-linejoin="round" stroke-linecap="round" stroke-miterlimit="4" stroke-width="2.6667" d="M14.311 6.768c3.106-0.37 6.247 0.286 8.945 1.869s4.803 4.005 5.995 6.897c0.111 0.299 0.111 0.629 0 0.928-0.491 1.188-1.138 2.304-1.925 3.32M18.779 18.877c-0.754 0.729-1.765 1.132-2.814 1.123s-2.052-0.43-2.794-1.171c-0.742-0.742-1.162-1.745-1.171-2.794s0.394-2.059 1.123-2.814"></path>
<path fill="none" stroke="#8e8f96" style="stroke: var(--color3, #8e8f96)" stroke-linejoin="round" stroke-linecap="round" stroke-miterlimit="4" stroke-width="2.6667" d="M23.305 23.332c-1.769 1.048-3.742 1.703-5.786 1.921s-4.111-0.007-6.061-0.658c-1.95-0.651-3.737-1.715-5.239-3.118s-2.686-3.112-3.47-5.013c-0.111-0.299-0.111-0.629 0-0.928 1.182-2.867 3.262-5.273 5.928-6.857M2.667 2.667l26.667 26.667"></path>
</symbol>
<symbol id="icon-heart" viewBox="0 0 32 32">
<path fill="none" stroke="#686970" style="stroke: var(--color1, #686970)" stroke-linejoin="round" stroke-linecap="round" stroke-miterlimit="4" stroke-width="2.6667" d="M2.667 12.666c0-1.484 0.45-2.933 1.291-4.155s2.033-2.161 3.418-2.692c1.385-0.531 2.899-0.629 4.342-0.282s2.746 1.124 3.737 2.228c0.070 0.075 0.154 0.134 0.248 0.175s0.195 0.062 0.297 0.062c0.102 0 0.203-0.021 0.297-0.062s0.178-0.1 0.248-0.175c0.989-1.111 2.292-1.894 3.737-2.246s2.962-0.255 4.351 0.277c1.388 0.532 2.582 1.475 3.422 2.702s1.286 2.681 1.279 4.168c0 3.053-2 5.333-4 7.333l-7.323 7.084c-0.248 0.285-0.555 0.514-0.899 0.672s-0.717 0.241-1.096 0.243c-0.378 0.003-0.753-0.076-1.099-0.229s-0.655-0.379-0.907-0.661l-7.344-7.109c-2-2-4-4.267-4-7.333z"></path>
</symbol>
<symbol id="icon-image" viewBox="0 0 32 32">
<path fill="none" stroke="#1570ef" style="stroke: var(--color4, #1570ef)" stroke-linejoin="round" stroke-linecap="round" stroke-miterlimit="4" stroke-width="2.6667" d="M25.333 4h-18.667c-1.473 0-2.667 1.194-2.667 2.667v18.667c0 1.473 1.194 2.667 2.667 2.667h18.667c1.473 0 2.667-1.194 2.667-2.667v-18.667c0-1.473-1.194-2.667-2.667-2.667z"></path>
<path fill="none" stroke="#1570ef" style="stroke: var(--color4, #1570ef)" stroke-linejoin="round" stroke-linecap="round" stroke-miterlimit="4" stroke-width="2.6667" d="M12 14.667c1.473 0 2.667-1.194 2.667-2.667s-1.194-2.667-2.667-2.667c-1.473 0-2.667 1.194-2.667 2.667s1.194 2.667 2.667 2.667z"></path>
<path fill="none" stroke="#1570ef" style="stroke: var(--color4, #1570ef)" stroke-linejoin="round" stroke-linecap="round" stroke-miterlimit="4" stroke-width="2.6667" d="M28 20l-4.115-4.115c-0.5-0.5-1.178-0.781-1.885-0.781s-1.385 0.281-1.885 0.781l-12.115 12.115"></path>
</symbol>
<symbol id="icon-log-out" viewBox="0 0 32 32">
<path fill="none" stroke="#e00c00" style="stroke: var(--color5, #e00c00)" stroke-linejoin="round" stroke-linecap="round" stroke-miterlimit="4" stroke-width="2.6667" d="M21.333 22.667l6.667-6.667M28 16l-6.667-6.667M28 16h-16M12 28h-5.333c-0.707 0-1.386-0.281-1.886-0.781s-0.781-1.178-0.781-1.886v-18.667c0-0.707 0.281-1.386 0.781-1.886s1.178-0.781 1.886-0.781h5.333"></path>
</symbol>
<symbol id="icon-paperclip" viewBox="0 0 32 32">
<path fill="none" stroke="#8e8f96" style="stroke: var(--color3, #8e8f96)" stroke-linejoin="round" stroke-linecap="round" stroke-miterlimit="4" stroke-width="2.6667" d="M21.333 8l-11.219 11.448c-0.5 0.5-0.781 1.179-0.781 1.886s0.281 1.386 0.781 1.886c0.5 0.5 1.179 0.781 1.886 0.781s1.386-0.281 1.886-0.781l11.219-11.448c1-1 1.562-2.357 1.562-3.771s-0.562-2.771-1.562-3.771c-1-1-2.357-1.562-3.771-1.562s-2.771 0.562-3.771 1.562l-11.172 11.401c-0.753 0.741-1.352 1.623-1.762 2.596s-0.623 2.018-0.628 3.074c-0.004 1.056 0.201 2.103 0.603 3.079s0.994 1.864 1.74 2.61c0.747 0.747 1.634 1.338 2.61 1.74s2.023 0.607 3.079 0.603c1.056-0.004 2.101-0.218 3.074-0.628s1.855-1.009 2.596-1.762l11.172-11.401"></path>
</symbol>
<symbol id="icon-plus" viewBox="0 0 32 32">
<path fill="none" stroke="#fff" style="stroke: var(--color6, #fff)" stroke-linejoin="round" stroke-linecap="round" stroke-miterlimit="4" stroke-width="2.6667" d="M6.667 16h18.667M16 6.667v18.667"></path>
</symbol>
<symbol id="icon-search" viewBox="0 0 32 32">
<path fill="none" stroke="#686970" style="stroke: var(--color1, #686970)" stroke-linejoin="round" stroke-linecap="round" stroke-miterlimit="4" stroke-width="2.6667" d="M28 28l-5.787-5.787"></path>
<path fill="none" stroke="#686970" style="stroke: var(--color1, #686970)" stroke-linejoin="round" stroke-linecap="round" stroke-miterlimit="4" stroke-width="2.6667" d="M14.667 25.333c5.891 0 10.667-4.776 10.667-10.667s-4.776-10.667-10.667-10.667c-5.891 0-10.667 4.776-10.667 10.667s4.776 10.667 10.667 10.667z"></path>
</symbol>
<symbol id="icon-smile" viewBox="0 0 32 32">
<path fill="none" stroke="#8e8f96" style="stroke: var(--color3, #8e8f96)" stroke-linejoin="round" stroke-linecap="round" stroke-miterlimit="4" stroke-width="2.6667" d="M16 29.333c7.364 0 13.333-5.97 13.333-13.333s-5.97-13.333-13.333-13.333c-7.364 0-13.333 5.97-13.333 13.333s5.97 13.333 13.333 13.333z"></path>
<path fill="none" stroke="#8e8f96" style="stroke: var(--color3, #8e8f96)" stroke-linejoin="round" stroke-linecap="round" stroke-miterlimit="4" stroke-width="2.6667" d="M10.667 18.667c0 0 2 2.667 5.333 2.667s5.333-2.667 5.333-2.667M12 12h0.013M20 12h0.013"></path>
</symbol>
<symbol id="icon-trash" viewBox="0 0 32 32">
<path fill="none" stroke="#686970" style="stroke: var(--color1, #686970)" stroke-linejoin="round" stroke-linecap="round" stroke-miterlimit="4" stroke-width="2.6667" d="M25.333 8.001v18.667c0 0.707-0.281 1.385-0.781 1.886s-1.178 0.781-1.886 0.781h-13.333c-0.707 0-1.386-0.281-1.886-0.781s-0.781-1.178-0.781-1.886v-18.667M4 8.001h24M10.667 8.001v-2.667c0-0.707 0.281-1.386 0.781-1.886s1.178-0.781 1.886-0.781h5.333c0.707 0 1.386 0.281 1.886 0.781s0.781 1.178 0.781 1.886v2.667"></path>
</symbol>
<symbol id="icon-user-round" viewBox="0 0 32 32">
<path fill="none" stroke="#b6b6bc" style="stroke: var(--color7, #b6b6bc)" stroke-linejoin="round" stroke-linecap="round" stroke-miterlimit="4" stroke-width="2.6667" d="M16 17.333c3.682 0 6.667-2.985 6.667-6.667s-2.985-6.667-6.667-6.667c-3.682 0-6.667 2.985-6.667 6.667s2.985 6.667 6.667 6.667z"></path>
<path fill="none" stroke="#b6b6bc" style="stroke: var(--color7, #b6b6bc)" stroke-linejoin="round" stroke-linecap="round" stroke-miterlimit="4" stroke-width="2.6667" d="M26.667 28c0-2.829-1.124-5.542-3.124-7.543s-4.713-3.124-7.542-3.124c-2.829 0-5.542 1.124-7.543 3.124s-3.124 4.714-3.124 7.543"></path>
</symbol>
<symbol id="icon-volume" viewBox="0 0 32 32">
<path fill="none" stroke="#686970" style="stroke: var(--color1, #686970)" stroke-linejoin="round" stroke-linecap="round" stroke-miterlimit="4" stroke-width="2.6667" d="M21.333 12c0.865 1.154 1.333 2.558 1.333 4s-0.468 2.846-1.333 4M25.819 24.485c1.114-1.114 1.998-2.437 2.601-3.893s0.914-3.016 0.914-4.592-0.31-3.136-0.914-4.592c-0.603-1.456-1.487-2.779-2.601-3.893M14.667 6.269c-0-0.186-0.056-0.367-0.159-0.522s-0.25-0.275-0.422-0.346c-0.172-0.071-0.36-0.090-0.543-0.053s-0.35 0.125-0.481 0.257l-4.512 4.511c-0.174 0.175-0.381 0.314-0.609 0.409s-0.473 0.143-0.72 0.142h-3.221c-0.354 0-0.693 0.14-0.943 0.391s-0.391 0.589-0.391 0.943v8c0 0.354 0.14 0.693 0.391 0.943s0.589 0.39 0.943 0.39h3.221c0.247-0.001 0.492 0.048 0.72 0.142s0.435 0.233 0.609 0.409l4.511 4.512c0.131 0.132 0.299 0.221 0.482 0.258s0.372 0.018 0.544-0.053c0.172-0.071 0.319-0.192 0.422-0.347s0.158-0.337 0.158-0.523v-19.461z"></path>
</symbol>
<symbol id="icon-dots" viewBox="0 0 32 32">
<path stroke-linejoin="round" stroke-linecap="round" stroke-miterlimit="4" stroke-width="2" d="M16 7.893c0.339 0 0.665-0.135 0.905-0.375s0.375-0.566 0.375-0.905-0.135-0.665-0.375-0.905c-0.24-0.24-0.566-0.375-0.905-0.375s-0.665 0.135-0.905 0.375c-0.24 0.24-0.375 0.566-0.375 0.905s0.135 0.665 0.375 0.905c0.24 0.24 0.566 0.375 0.905 0.375zM16 17.28c0.339 0 0.665-0.135 0.905-0.375s0.375-0.566 0.375-0.905-0.135-0.665-0.375-0.905c-0.24-0.24-0.566-0.375-0.905-0.375s-0.665 0.135-0.905 0.375c-0.24 0.24-0.375 0.566-0.375 0.905s0.135 0.665 0.375 0.905c0.24 0.24 0.566 0.375 0.905 0.375zM16 26.667c0.339 0 0.665-0.135 0.905-0.375s0.375-0.566 0.375-0.905-0.135-0.665-0.375-0.905c-0.24-0.24-0.566-0.375-0.905-0.375s-0.665 0.135-0.905 0.375c-0.24 0.24-0.375 0.566-0.375 0.905s0.135 0.665 0.375 0.905c0.24 0.24 0.566 0.375 0.905 0.375z"></path>
</symbol>
<symbol id="icon-send" viewBox="0 0 32 32">
<path fill="#fafafc" style="fill: var(--color8, #fafafc)" d="M2.667 28l28-12-28-12v9.333l20 2.667-20 2.667v9.333z"></path>
</symbol>
</defs>
</svg>
